<svg width="46" height="46" viewBox="0 0 46 46" fill="none" xmlns="http://www.w3.org/2000/svg">
<g clip-path="url(#clip0_1_1322)">
<path d="M40.9878 22.6853C41.1646 32.6297 33.2455 40.8173 23.3155 40.9915C13.3877 41.1825 5.18199 33.2438 5.0159 23.3221C4.83421 13.3812 12.7555 5.18023 22.6801 5.00755C32.6195 4.83789 40.8176 12.7484 40.9895 22.6918L40.9878 22.6853ZM29.9996 18.4668C29.7267 16.0707 27.633 15.2982 24.9982 15.1062L24.9447 11.7767L22.9075 11.8066L22.9692 15.0664C22.4354 15.0696 21.8857 15.0958 21.3324 15.1171L21.2653 11.8285L19.2245 11.8664L19.2832 15.2108L17.989 15.2489L15.1874 15.295L15.2255 17.4755C15.2255 17.4755 16.7276 17.4178 16.6975 17.4445C17.5277 17.4352 17.8024 17.8997 17.8902 18.3141L18.0493 27.4666C18.0058 27.7345 17.8564 28.1507 17.2829 28.1576C17.3076 28.1802 15.7986 28.1862 15.7986 28.1862L15.4273 30.6255L18.0714 30.5786L19.5118 30.5688L19.5762 33.9559L21.6156 33.9126L21.5605 30.5603C22.1206 30.5686 22.653 30.5645 23.1827 30.5507L23.2835 33.8652L25.325 33.8341L25.2612 30.4492C28.6744 30.195 31.0553 29.2962 31.2969 26.0774C31.4872 23.4839 30.2494 22.3551 28.2961 21.9199C29.4535 21.3058 30.1736 20.2335 29.98 18.472L29.9996 18.4668ZM27.2748 25.754C27.3291 28.2866 22.9933 28.066 21.6115 28.0903L21.5329 23.611C22.9186 23.5972 27.2322 23.1263 27.2748 25.754ZM26.2234 19.4483C26.2636 21.7541 22.6544 21.5506 21.5001 21.5676L21.4271 17.4875C22.5714 17.4592 26.1734 17.0275 26.2217 19.4418L26.2234 19.4483Z" fill="#01BC8D"/>
</g>
<defs>
<clipPath id="clip0_1_1322">
<rect width="36" height="36" fill="white" transform="translate(0.955078 10.2722) rotate(-15)"/>
</clipPath>
</defs>
</svg>
