<svg width="14" height="14" viewBox="0 0 14 14" fill="none" xmlns="http://www.w3.org/2000/svg">
<path d="M0.333496 5.00001C0.333496 3.74268 0.333496 3.11468 0.724163 2.72401C1.11483 2.33334 1.74283 2.33334 3.00016 2.33334H11.0002C12.2575 2.33334 12.8855 2.33334 13.2762 2.72401C13.6668 3.11468 13.6668 3.74268 13.6668 5.00001C13.6668 5.31401 13.6668 5.47134 13.5695 5.56934C13.4715 5.66668 13.3135 5.66668 13.0002 5.66668H1.00016C0.686163 5.66668 0.528829 5.66668 0.430829 5.56934C0.333496 5.47134 0.333496 5.31334 0.333496 5.00001ZM0.333496 11C0.333496 12.2573 0.333496 12.8853 0.724163 13.276C1.11483 13.6667 1.74283 13.6667 3.00016 13.6667H11.0002C12.2575 13.6667 12.8855 13.6667 13.2762 13.276C13.6668 12.8853 13.6668 12.2573 13.6668 11V7.66668C13.6668 7.35268 13.6668 7.19534 13.5695 7.09734C13.4715 7.00001 13.3135 7.00001 13.0002 7.00001H1.00016C0.686163 7.00001 0.528829 7.00001 0.430829 7.09734C0.333496 7.19534 0.333496 7.35334 0.333496 7.66668V11Z" fill="#6A6E78"/>
<path d="M3.66699 1V3M10.3337 1V3" stroke="#6A6E78" stroke-width="2" stroke-linecap="round"/>
</svg>
