<svg width="36" height="36" viewBox="0 0 36 36" fill="none" xmlns="http://www.w3.org/2000/svg">
<path d="M18 2.625C14.9591 2.625 11.9865 3.52673 9.45811 5.21615C6.92971 6.90558 4.95906 9.30683 3.79536 12.1162C2.63166 14.9257 2.32719 18.0171 2.92043 20.9995C3.51368 23.982 4.97801 26.7215 7.12824 28.8718C9.27847 31.022 12.018 32.4863 15.0005 33.0796C17.983 33.6728 21.0744 33.3683 23.8838 32.2046C26.6932 31.0409 29.0944 29.0703 30.7839 26.5419C32.4733 24.0135 33.375 21.0409 33.375 18C33.371 13.9235 31.7499 10.0151 28.8674 7.13262C25.9849 4.25011 22.0765 2.62897 18 2.625ZM19.125 26.625V27.81C19.125 28.1084 19.0065 28.3945 18.7955 28.6055C18.5845 28.8165 18.2984 28.935 18 28.935C17.7016 28.935 17.4155 28.8165 17.2045 28.6055C16.9935 28.3945 16.875 28.1084 16.875 27.81V26.625C15.8975 26.4789 14.9818 26.0574 14.235 25.41C13.7019 24.9631 13.263 24.4147 12.9437 23.7967C12.6244 23.1787 12.4311 22.5034 12.375 21.81C12.356 21.5884 12.4032 21.3661 12.5105 21.1713C12.6178 20.9764 12.7804 20.8178 12.9779 20.7153C13.1754 20.6129 13.3987 20.5713 13.6198 20.5958C13.8409 20.6203 14.0498 20.7098 14.22 20.853C14.4496 21.0441 14.5951 21.3177 14.625 21.615C14.6537 22.0162 14.7628 22.4075 14.9457 22.7657C15.1287 23.1239 15.3818 23.4416 15.69 23.7C16.3098 24.2299 17.111 24.4987 17.925 24.45C20.265 24.45 21.375 23.55 21.375 21.72C21.375 20.505 20.31 19.2 18 19.2C13.11 19.2 12.375 16.2 12.375 14.475C12.415 13.3993 12.7847 12.3618 13.434 11.5033C14.0833 10.6447 14.9808 10.0064 16.005 9.675C16.29 9.587 16.58 9.522 16.875 9.48V8.31C16.875 8.01163 16.9935 7.72548 17.2045 7.5145C17.4155 7.30353 17.7016 7.185 18 7.185C18.2984 7.185 18.5845 7.30353 18.7955 7.5145C19.0065 7.72548 19.125 8.01163 19.125 8.31V9.525C20.3026 9.7214 21.3823 10.3015 22.1961 11.175C23.01 12.0485 23.5123 13.1665 23.625 14.355C23.6373 14.6419 23.5395 14.9227 23.3514 15.1398C23.1634 15.3569 22.8995 15.4939 22.6137 15.5226C22.328 15.5514 22.042 15.4698 21.8145 15.2945C21.587 15.1193 21.4351 14.8636 21.39 14.58C21.3066 13.7659 20.9155 13.0145 20.2965 12.4792C19.6776 11.9439 18.8776 11.6651 18.06 11.7H17.79C17.4246 11.6971 17.0608 11.7477 16.71 11.85C16.3262 11.9752 15.9716 12.1765 15.6675 12.442C15.3633 12.7075 15.1159 13.0316 14.94 13.395C14.7596 13.7545 14.6574 14.1481 14.64 14.55C14.64 15.78 15.045 16.98 18.015 16.98C21.705 16.98 23.64 19.38 23.64 21.75C23.66 22.3676 23.5571 22.9831 23.3372 23.5606C23.1173 24.1381 22.7849 24.6661 22.3593 25.1141C21.9337 25.5621 21.4233 25.921 20.8577 26.1701C20.2922 26.4192 19.6828 26.5534 19.065 26.565L19.125 26.625Z" fill="#01BC8D"/>
</svg>
