<svg width="75" height="75" viewBox="0 0 75 75" fill="none" xmlns="http://www.w3.org/2000/svg">
<g clip-path="url(#clip0_1_1061)">
<g filter="url(#filter0_d_1_1061)">
<path d="M37.5134 62.1469C59.6732 62.1469 75 44.2192 75 38.6304C75 33.0147 59.6451 15.1152 37.5134 15.1152C15.5196 15.1152 0 33.0147 0 38.6304C0 44.2192 15.6308 62.1469 37.5134 62.1469ZM37.5134 54.0402C28.8817 54.0402 22.0768 47.0411 22.0219 38.6304C21.9938 30 28.8817 23.2232 37.5134 23.2232C46.0902 23.2232 52.9781 30 52.9781 38.6317C52.9781 47.0424 46.0902 54.0415 37.5134 54.0415M37.5134 44.1924C40.5844 44.1924 43.1304 41.6745 43.1304 38.6317C43.1304 35.5607 40.5857 33.0442 37.5134 33.0442C34.4156 33.0442 31.8696 35.562 31.8696 38.6317C31.8696 41.6759 34.4143 44.1924 37.5134 44.1924Z" fill="url(#paint0_linear_1_1061)"/>
</g>
</g>
<defs>
<filter id="filter0_d_1_1061" x="-4" y="15.1152" width="83" height="55.0317" filterUnits="userSpaceOnUse" color-interpolation-filters="sRGB">
<feFlood flood-opacity="0" result="BackgroundImageFix"/>
<feColorMatrix in="SourceAlpha" type="matrix" values="0 0 0 0 0 0 0 0 0 0 0 0 0 0 0 0 0 0 127 0" result="hardAlpha"/>
<feOffset dy="4"/>
<feGaussianBlur stdDeviation="2"/>
<feComposite in2="hardAlpha" operator="out"/>
<feColorMatrix type="matrix" values="0 0 0 0 0 0 0 0 0 0 0 0 0 0 0 0 0 0 0.25 0"/>
<feBlend mode="normal" in2="BackgroundImageFix" result="effect1_dropShadow_1_1061"/>
<feBlend mode="normal" in="SourceGraphic" in2="effect1_dropShadow_1_1061" result="shape"/>
</filter>
<linearGradient id="paint0_linear_1_1061" x1="37.5" y1="15.1152" x2="37.5" y2="62.1469" gradientUnits="userSpaceOnUse">
<stop stop-color="#01BC8D"/>
<stop offset="1" stop-color="#018563"/>
</linearGradient>
<clipPath id="clip0_1_1061">
<rect width="75" height="75" fill="white"/>
</clipPath>
</defs>
</svg>
