<svg width="16" height="16" viewBox="0 0 16 16" fill="none" xmlns="http://www.w3.org/2000/svg">
<path d="M12.0938 4C11.7251 4 11.4282 4.29688 11.4282 4.66563V11.3313C11.4282 13.1719 9.9376 14.6656 8.09385 14.6656C6.2501 14.6656 4.75947 13.1719 4.75947 11.3313V3.33125C4.75947 2.22813 5.65322 1.33125 6.75947 1.33125C7.86572 1.33125 8.75947 2.22813 8.75947 3.33125V10C8.75947 10.3687 8.45947 10.6656 8.09385 10.6656C7.72822 10.6656 7.42822 10.3687 7.42822 10V4.66563C7.42822 4.29688 7.12822 4 6.7626 4C6.39385 4 6.09697 4.29688 6.09697 4.66563V10C6.09697 11.1062 6.99072 12 8.09697 12C9.20322 12 10.097 11.1062 10.097 10V3.33437C10.0938 1.49375 8.6001 0 6.75947 0C4.91885 0 3.42822 1.49375 3.42822 3.33437V11.3344C3.42822 13.9125 5.51885 16 8.09385 16C10.6688 16 12.7595 13.9094 12.7595 11.3344V4.66563C12.7595 4.29688 12.4626 4 12.0938 4Z" fill="#F3F3F3" fill-opacity="0.4"/>
</svg>
