<svg width="24" height="25" viewBox="0 0 24 25" fill="none" xmlns="http://www.w3.org/2000/svg">
<path d="M18.7537 11.018C18.7537 11.643 16.5157 12.166 13.5157 12.298L13.5177 12.299C13.0182 12.3263 12.5179 12.3374 12.0177 12.332C11.2387 12.332 10.6877 12.309 10.4937 12.3C7.48769 12.167 5.24369 11.644 5.24369 11.018C5.24369 10.392 7.48769 9.86804 10.4937 9.73404V11.778C10.6897 11.793 11.2527 11.826 12.0307 11.826C12.9637 11.826 13.4307 11.786 13.5157 11.779V9.73604C16.5157 9.86904 18.7537 10.393 18.7537 11.018ZM23.9437 11.564L12.1237 22.89C12.0902 22.9221 12.0456 22.94 11.9992 22.94C11.9528 22.94 11.9082 22.9221 11.8747 22.89L0.055691 11.564C0.0282238 11.5378 0.00975629 11.5036 0.00293088 11.4662C-0.00389452 11.4288 0.00127191 11.3903 0.017691 11.356L4.39369 2.16404C4.4083 2.13318 4.43138 2.10711 4.46024 2.08887C4.4891 2.07063 4.52255 2.06098 4.55669 2.06104H19.4447C19.4783 2.06154 19.5111 2.07146 19.5394 2.08966C19.5677 2.10787 19.5903 2.13363 19.6047 2.16404L23.9817 11.356C23.9981 11.3903 24.0033 11.4288 23.9965 11.4662C23.9896 11.5036 23.9712 11.5378 23.9437 11.564Z" fill="#F3F3F3"/>
<path d="M18.7537 11.018C18.7537 11.643 16.5157 12.166 13.5157 12.298L13.5177 12.299C13.0182 12.3263 12.5179 12.3374 12.0177 12.332C11.2387 12.332 10.6877 12.309 10.4937 12.3C7.48769 12.167 5.24369 11.644 5.24369 11.018C5.24369 10.392 7.48769 9.86804 10.4937 9.73404V11.778C10.6897 11.793 11.2527 11.826 12.0307 11.826C12.9637 11.826 13.4307 11.786 13.5157 11.779V9.73604C16.5157 9.86904 18.7537 10.393 18.7537 11.018ZM23.9437 11.564L12.1237 22.89C12.0902 22.9221 12.0456 22.94 11.9992 22.94C11.9528 22.94 11.9082 22.9221 11.8747 22.89L0.055691 11.564C0.0282238 11.5378 0.00975629 11.5036 0.00293088 11.4662C-0.00389452 11.4288 0.00127191 11.3903 0.017691 11.356L4.39369 2.16404C4.4083 2.13318 4.43138 2.10711 4.46024 2.08887C4.4891 2.07063 4.52255 2.06098 4.55669 2.06104H19.4447C19.4783 2.06154 19.5111 2.07146 19.5394 2.08966C19.5677 2.10787 19.5903 2.13363 19.6047 2.16404L23.9817 11.356C23.9981 11.3903 24.0033 11.4288 23.9965 11.4662C23.9896 11.5036 23.9712 11.5378 23.9437 11.564ZM19.4657 11.16C19.4657 10.354 16.9137 9.68004 13.5187 9.52304V7.69504H17.7047V4.90504H6.30769V7.69504H10.4927V9.52404C7.09069 9.68004 4.53269 10.354 4.53269 11.161C4.53269 11.969 7.09069 12.641 10.4927 12.799V18.661H13.5177V12.797C16.9117 12.64 19.4657 11.967 19.4657 11.16Z" fill="#01BC8D"/>
</svg>
