<svg width="22" height="22" viewBox="0 0 22 22" fill="none" xmlns="http://www.w3.org/2000/svg">
<g clip-path="url(#clip0_1_840)">
<path d="M11 0C12.0098 0 12.9837 0.128906 13.9219 0.386719C14.86 0.644531 15.7337 1.01693 16.543 1.50391C17.3522 1.99089 18.0934 2.5638 18.7666 3.22266C19.4398 3.88151 20.0163 4.62272 20.4961 5.44629C20.9759 6.26986 21.3447 7.14714 21.6025 8.07812C21.8604 9.00912 21.9928 9.98307 22 11C22 12.0098 21.8711 12.9837 21.6133 13.9219C21.3555 14.86 20.9831 15.7337 20.4961 16.543C20.0091 17.3522 19.4362 18.0934 18.7773 18.7666C18.1185 19.4398 17.3773 20.0163 16.5537 20.4961C15.7301 20.9759 14.8529 21.3447 13.9219 21.6025C12.9909 21.8604 12.0169 21.9928 11 22C9.99023 22 9.01628 21.8711 8.07812 21.6133C7.13997 21.3555 6.26628 20.9831 5.45703 20.4961C4.64779 20.0091 3.90658 19.4362 3.2334 18.7773C2.56022 18.1185 1.98372 17.3773 1.50391 16.5537C1.02409 15.7301 0.655273 14.8529 0.397461 13.9219C0.139648 12.9909 0.00716146 12.0169 0 11C0 9.99023 0.128906 9.01628 0.386719 8.07812C0.644531 7.13997 1.01693 6.26628 1.50391 5.45703C1.99089 4.64779 2.5638 3.90658 3.22266 3.2334C3.88151 2.56022 4.62272 1.98372 5.44629 1.50391C6.26986 1.02409 7.14714 0.655273 8.07812 0.397461C9.00912 0.139648 9.98307 0.00716146 11 0Z" fill="#F3F3F3"/>
<path d="M11 0C12.0098 0 12.9837 0.128906 13.9219 0.386719C14.86 0.644531 15.7337 1.01693 16.543 1.50391C17.3522 1.99089 18.0934 2.5638 18.7666 3.22266C19.4398 3.88151 20.0163 4.62272 20.4961 5.44629C20.9759 6.26986 21.3447 7.14714 21.6025 8.07812C21.8604 9.00911 21.9928 9.98307 22 11C22 12.0098 21.8711 12.9837 21.6133 13.9219C21.3555 14.86 20.9831 15.7337 20.4961 16.543C20.0091 17.3522 19.4362 18.0934 18.7773 18.7666C18.1185 19.4398 17.3773 20.0163 16.5537 20.4961C15.7301 20.9759 14.8529 21.3447 13.9219 21.6025C12.9909 21.8604 12.0169 21.9928 11 22C9.99023 22 9.01628 21.8711 8.07812 21.6133C7.13997 21.3555 6.26628 20.9831 5.45703 20.4961C4.64779 20.0091 3.90658 19.4362 3.2334 18.7773C2.56022 18.1185 1.98372 17.3773 1.50391 16.5537C1.02409 15.7301 0.655273 14.8529 0.397461 13.9219C0.139648 12.9909 0.00716146 12.0169 0 11C0 9.99023 0.128906 9.01628 0.386719 8.07812C0.644531 7.13997 1.01693 6.26628 1.50391 5.45703C1.99089 4.64779 2.5638 3.90658 3.22266 3.2334C3.88151 2.56022 4.62272 1.98372 5.44629 1.50391C6.26986 1.02409 7.14714 0.655273 8.07812 0.397461C9.00911 0.139648 9.98307 0.00716146 11 0ZM12.2139 11L15.8877 7.32617L14.6738 6.1123L11 9.78613L7.32617 6.1123L6.1123 7.32617L9.78613 11L6.1123 14.6738L7.32617 15.8877L11 12.2139L14.6738 15.8877L15.8877 14.6738L12.2139 11Z" fill="#F66754"/>
</g>
<defs>
<clipPath id="clip0_1_840">
<rect width="22" height="22" fill="white"/>
</clipPath>
</defs>
</svg>
