<svg width="150" height="120" viewBox="0 0 150 120" fill="none" xmlns="http://www.w3.org/2000/svg">
<g clip-path="url(#clip0_1_1100)">
<path d="M116.25 52.5C97.5938 52.5 82.5 67.5938 82.5 86.25C82.5 104.906 97.5938 120 116.25 120C134.906 120 150 104.906 150 86.25C150 67.5938 134.906 52.5 116.25 52.5ZM131.25 87.7266C131.25 88.9688 130.219 90 128.977 90H114.773C113.531 90 112.5 88.9688 112.5 87.7266V69.7734C112.5 68.5312 113.531 67.5 114.773 67.5H117.727C118.969 67.5 120 68.5312 120 69.7734V82.5H128.977C130.219 82.5 131.25 83.5312 131.25 84.7734V87.7266ZM75 86.25C75 79.7344 76.5703 73.5703 79.2656 68.0859C77.3906 67.7344 75.4688 67.5 73.5 67.5H69.5859C64.3828 69.8906 58.5938 71.25 52.5 71.25C46.4062 71.25 40.6406 69.8906 35.4141 67.5H31.5C14.1094 67.5 0 81.6094 0 99V108.75C0 114.961 5.03906 120 11.25 120H92.6016C81.9844 112.523 75 100.195 75 86.25ZM52.5 60C69.0703 60 82.5 46.5703 82.5 30C82.5 13.4297 69.0703 0 52.5 0C35.9297 0 22.5 13.4297 22.5 30C22.5 46.5703 35.9297 60 52.5 60Z" fill="#F1FF70"/>
<path d="M116.25 52.5C97.5938 52.5 82.5 67.5938 82.5 86.25C82.5 104.906 97.5938 120 116.25 120C134.906 120 150 104.906 150 86.25C150 67.5938 134.906 52.5 116.25 52.5ZM131.25 87.7266C131.25 88.9688 130.219 90 128.977 90H114.773C113.531 90 112.5 88.9688 112.5 87.7266V69.7734C112.5 68.5312 113.531 67.5 114.773 67.5H117.727C118.969 67.5 120 68.5312 120 69.7734V82.5H128.977C130.219 82.5 131.25 83.5312 131.25 84.7734V87.7266ZM75 86.25C75 79.7344 76.5703 73.5703 79.2656 68.0859C77.3906 67.7344 75.4688 67.5 73.5 67.5H69.5859C64.3828 69.8906 58.5938 71.25 52.5 71.25C46.4062 71.25 40.6406 69.8906 35.4141 67.5H31.5C14.1094 67.5 0 81.6094 0 99V108.75C0 114.961 5.03906 120 11.25 120H92.6016C81.9844 112.523 75 100.195 75 86.25ZM52.5 60C69.0703 60 82.5 46.5703 82.5 30C82.5 13.4297 69.0703 0 52.5 0C35.9297 0 22.5 13.4297 22.5 30C22.5 46.5703 35.9297 60 52.5 60Z" fill="#F1FF70"/>
</g>
<defs>
<clipPath id="clip0_1_1100">
<rect width="150" height="120" fill="white"/>
</clipPath>
</defs>
</svg>
